<svg xmlns="http://www.w3.org/2000/svg" viewBox="0 0 1600 1000" preserveAspectRatio="xMidYMid slice">
    <defs>
      <linearGradient id="bg1" x1="0" y1="0" x2="0" y2="1">
        <stop offset="0" stop-color="#1a1714"></stop><stop offset="1" stop-color="#0c0a08"></stop>
      </linearGradient>
    </defs>
    <rect width="1600" height="1000" fill="url(#bg1)"></rect>
    
    <polygon points="0,720 1600,720 1600,1000 0,1000" fill="#0a0908"></polygon>
    <line x1="0" y1="720" x2="1600" y2="720" stroke="#b89a6a" stroke-opacity="0.18"></line>
    
    
      <rect x="200" y="220" width="280" height="380" fill="#b89a6a" fill-opacity="0.05" stroke="#b89a6a" stroke-opacity="0.35" stroke-width="2"></rect>
      <rect x="230" y="260" width="220" height="300" fill="#b89a6a" fill-opacity="0.03" stroke="#b89a6a" stroke-opacity="0.2"></rect>
      <rect x="310" y="380" width="60" height="160" fill="#b89a6a" fill-opacity="0.55"></rect>
      <ellipse cx="340" cy="600" rx="70" ry="6" fill="#b89a6a" fill-opacity="0.18"></ellipse>
    
      <rect x="660" y="220" width="280" height="380" fill="#b89a6a" fill-opacity="0.05" stroke="#b89a6a" stroke-opacity="0.35" stroke-width="2"></rect>
      <rect x="690" y="260" width="220" height="300" fill="#b89a6a" fill-opacity="0.03" stroke="#b89a6a" stroke-opacity="0.2"></rect>
      <rect x="770" y="380" width="60" height="160" fill="#b89a6a" fill-opacity="0.55"></rect>
      <ellipse cx="800" cy="600" rx="70" ry="6" fill="#b89a6a" fill-opacity="0.18"></ellipse>
    
      <rect x="1120" y="220" width="280" height="380" fill="#b89a6a" fill-opacity="0.05" stroke="#b89a6a" stroke-opacity="0.35" stroke-width="2"></rect>
      <rect x="1150" y="260" width="220" height="300" fill="#b89a6a" fill-opacity="0.03" stroke="#b89a6a" stroke-opacity="0.2"></rect>
      <rect x="1230" y="380" width="60" height="160" fill="#b89a6a" fill-opacity="0.55"></rect>
      <ellipse cx="1260" cy="600" rx="70" ry="6" fill="#b89a6a" fill-opacity="0.18"></ellipse>
    
    
    <line x1="80" y1="600" x2="1520" y2="600" stroke="#b89a6a" stroke-opacity="0.25" stroke-dasharray="4 8"></line>
    <text x="80" y="940" font-family="Inter,sans-serif" font-size="13" fill="#b89a6a" fill-opacity="0.5" letter-spacing="3">CUSTOMER SETUP · PLACEHOLDER</text>
  </svg>